<svg width="33" height="11" viewBox="0 0 33 11" fill="none" xmlns="http://www.w3.org/2000/svg">
<path fill-rule="evenodd" clip-rule="evenodd" d="M2.884 0.806735C2.71283 0.804003 2.54271 0.82993 2.38336 0.883033C2.22402 0.936136 2.07859 1.01537 1.95539 1.11621C1.8322 1.21704 1.73366 1.33749 1.66542 1.47066C1.59717 1.60384 1.56057 1.74712 1.55769 1.89231V8.9476C1.56466 9.24051 1.70811 9.51916 1.95666 9.72259C2.20521 9.92603 2.53864 10.0377 2.884 10.0332H28.7472C28.9183 10.0359 29.0885 10.01 29.2478 9.95688C29.4071 9.90378 29.5526 9.82454 29.6758 9.72371C29.799 9.62288 29.8975 9.50242 29.9657 9.36925C30.034 9.23608 30.0706 9.09279 30.0735 8.9476V1.89231C30.0665 1.5994 29.9231 1.32076 29.6745 1.11732C29.4259 0.913884 29.0925 0.802214 28.7472 0.806735H2.884ZM2.884 0.263948H28.7472C29.2654 0.25667 29.7658 0.424011 30.1388 0.729271C30.5118 1.03453 30.7268 1.45279 30.7366 1.89231V8.9476C30.7322 9.16535 30.6772 9.38022 30.5747 9.57992C30.4723 9.77963 30.3245 9.96025 30.1398 10.1115C29.955 10.2627 29.7369 10.3816 29.498 10.4613C29.259 10.541 29.0039 10.5799 28.7472 10.576H2.884C2.36578 10.5832 1.86532 10.4159 1.49236 10.1106C1.1194 9.80538 0.90441 9.38713 0.894531 8.9476L0.894531 1.89231C0.898991 1.67456 0.954 1.4597 1.05642 1.25999C1.15883 1.06029 1.30664 0.87966 1.49141 0.728434C1.67617 0.577208 1.89426 0.458348 2.13321 0.378649C2.37216 0.29895 2.62729 0.259973 2.884 0.263948V0.263948Z" fill="white"/>
<path d="M12.1686 1.34961H3.23808C2.62766 1.34961 2.13281 1.76932 2.13281 2.28707V8.56146C2.13281 9.0792 2.62766 9.49892 3.23808 9.49892H12.1686C12.779 9.49892 13.2739 9.0792 13.2739 8.56146V2.28707C13.2739 1.76932 12.779 1.34961 12.1686 1.34961Z" fill="white"/>
<path fill-rule="evenodd" clip-rule="evenodd" d="M32.9469 5.41983C32.9734 5.84758 32.8218 6.26961 32.5188 6.61228C32.2158 6.95495 31.7806 7.19649 31.2891 7.29475V3.54492C31.7806 3.64318 32.2158 3.88472 32.5188 4.22739C32.8218 4.57005 32.9734 4.99209 32.9469 5.41983V5.41983Z" fill="white"/>
</svg>
