<svg width="17" height="17" viewBox="0 0 17 17" fill="none" xmlns="http://www.w3.org/2000/svg">
<g clip-path="url(#clip0_2503_11398)">
<path d="M8.129 0C5.9733 0.000795119 3.90612 0.857494 2.38181 2.38181C0.857496 3.90612 0.000795119 5.9733 0 8.129C0.000795119 10.2847 0.857496 12.3519 2.38181 13.8762C3.90612 15.4005 5.9733 16.2572 8.129 16.258C10.2847 16.2572 12.3519 15.4005 13.8762 13.8762C15.4005 12.3519 16.2572 10.2847 16.258 8.129C16.2572 5.9733 15.4005 3.90612 13.8762 2.38181C12.3519 0.857494 10.2847 0.000795119 8.129 0ZM8.129 14.632C6.40509 14.632 4.75179 13.9472 3.53281 12.7282C2.31382 11.5092 1.629 9.8559 1.629 8.13199C1.629 6.40808 2.31382 4.75478 3.53281 3.5358C4.75179 2.31681 6.40509 1.63199 8.129 1.63199C9.85291 1.63199 11.5062 2.31681 12.7252 3.5358C13.9442 4.75478 14.629 6.40808 14.629 8.13199C14.629 9.8559 13.9442 11.5092 12.7252 12.7282C11.5062 13.9472 9.85291 14.632 8.129 14.632Z" fill="#007A33"/>
</g>
<defs>
<clipPath id="clip0_2503_11398">
<rect width="16.258" height="16.258" fill="white"/>
</clipPath>
</defs>
</svg>
