<svg width="17" height="17" viewBox="0 0 17 17" fill="none" xmlns="http://www.w3.org/2000/svg">
<g clip-path="url(#clip0_2503_11402)">
<path d="M8.129 0C5.9733 0.000795119 3.90612 0.857494 2.38181 2.38181C0.857496 3.90612 0.000795119 5.9733 0 8.129C0.000795119 10.2847 0.857496 12.3519 2.38181 13.8762C3.90612 15.4005 5.9733 16.2572 8.129 16.258C10.2847 16.2572 12.3519 15.4005 13.8762 13.8762C15.4005 12.3519 16.2572 10.2847 16.258 8.129C16.2572 5.9733 15.4005 3.90612 13.8762 2.38181C12.3519 0.857494 10.2847 0.000795119 8.129 0V0ZM8.129 14.632C6.40509 14.632 4.75179 13.9472 3.53281 12.7282C2.31382 11.5092 1.629 9.8559 1.629 8.13199C1.629 6.40808 2.31382 4.75478 3.53281 3.5358C4.75179 2.31681 6.40509 1.63199 8.129 1.63199C9.85291 1.63199 11.5062 2.31681 12.7252 3.5358C13.9442 4.75478 14.629 6.40808 14.629 8.13199C14.629 9.8559 13.9442 11.5092 12.7252 12.7282C11.5062 13.9472 9.85291 14.632 8.129 14.632V14.632ZM8.129 12.193C9.20684 12.193 10.2405 11.7648 11.0027 11.0027C11.7648 10.2405 12.193 9.20684 12.193 8.129C12.193 7.59531 12.0879 7.06683 11.8836 6.57376C11.6794 6.08069 11.3801 5.63269 11.0027 5.25531C10.6253 4.87793 10.1773 4.57859 9.68423 4.37436C9.19116 4.17012 8.66269 4.065 8.129 4.065C7.05116 4.065 6.01747 4.49316 5.25532 5.25531C4.49317 6.01746 4.065 7.05116 4.065 8.129C4.065 9.20684 4.49317 10.2405 5.25532 11.0027C6.01747 11.7648 7.05116 12.193 8.129 12.193V12.193Z" fill="#007A33"/>
</g>
<defs>
<clipPath id="clip0_2503_11402">
<rect width="16.258" height="16.258" fill="white"/>
</clipPath>
</defs>
</svg>
