<svg width="10" height="11" viewBox="0 0 10 11" fill="none" xmlns="http://www.w3.org/2000/svg">
<path d="M7.92043 4.59961H1.28886C0.678437 4.59961 0.183594 5.05463 0.183594 5.61592V9.68115C0.183594 10.2424 0.678437 10.6975 1.28886 10.6975H7.92043C8.53085 10.6975 9.0257 10.2424 9.0257 9.68115V5.61592C9.0257 5.05463 8.53085 4.59961 7.92043 4.59961Z" fill="white"/>
<path fill-rule="evenodd" clip-rule="evenodd" d="M6.81538 6.633H7.92064V3.58408C7.92064 2.77545 7.5713 1.99995 6.94947 1.42817C6.32764 0.856381 5.48425 0.535156 4.60485 0.535156C3.72545 0.535156 2.88207 0.856381 2.26023 1.42817C1.6384 1.99995 1.28906 2.77545 1.28906 3.58408V6.633H2.39433C2.39433 6.633 2.39433 6.633 2.39433 6.6269V3.59018C2.39433 3.05109 2.62722 2.53409 3.04177 2.1529C3.45633 1.77171 4.01858 1.55756 4.60485 1.55756C5.19112 1.55756 5.75337 1.77171 6.16793 2.1529C6.58248 2.53409 6.81538 3.05109 6.81538 3.59018V6.6269V6.633Z" fill="white"/>
</svg>
