<svg width="10" height="11" viewBox="0 0 10 11" fill="none" xmlns="http://www.w3.org/2000/svg">
<path d="M7.92141 4.59961H1.28983C0.679413 4.59961 0.18457 5.05463 0.18457 5.61592V9.68115C0.18457 10.2424 0.679413 10.6975 1.28983 10.6975H7.92141C8.53183 10.6975 9.02667 10.2424 9.02667 9.68115V5.61592C9.02667 5.05463 8.53183 4.59961 7.92141 4.59961Z" fill="white"/>
<path fill-rule="evenodd" clip-rule="evenodd" d="M6.81635 6.633H7.92162V3.58408C7.92162 2.77545 7.57227 1.99995 6.95044 1.42817C6.32861 0.856381 5.48523 0.535156 4.60583 0.535156C3.72643 0.535156 2.88304 0.856381 2.26121 1.42817C1.63938 1.99995 1.29004 2.77545 1.29004 3.58408V6.633H2.3953C2.3953 6.633 2.3953 6.633 2.3953 6.6269V3.59018C2.3953 3.05109 2.6282 2.53409 3.04275 2.1529C3.4573 1.77171 4.01956 1.55756 4.60583 1.55756C5.1921 1.55756 5.75435 1.77171 6.16891 2.1529C6.58346 2.53409 6.81635 3.05109 6.81635 3.59018V6.6269V6.633Z" fill="white"/>
</svg>
