<svg width="46" height="8" viewBox="0 0 46 8" fill="none" xmlns="http://www.w3.org/2000/svg">
<path fill-rule="evenodd" clip-rule="evenodd" d="M41.4475 7.33302C42.0736 7.33302 42.6856 7.16231 43.2062 6.84247C43.7267 6.52264 44.1325 6.06805 44.372 5.53619C44.6116 5.00433 44.6743 4.41908 44.5522 3.85446C44.43 3.28984 44.1286 2.7712 43.6859 2.36413C43.2432 1.95706 42.6791 1.67985 42.0651 1.56754C41.451 1.45523 40.8146 1.51287 40.2361 1.73317C39.6577 1.95348 39.1634 2.32655 38.8155 2.80521C38.4677 3.28387 38.2821 3.84663 38.2821 4.42231C38.2821 5.19428 38.6156 5.93463 39.2092 6.48049C39.8028 7.02635 40.608 7.33302 41.4475 7.33302V7.33302ZM41.4475 7.97939C40.6824 7.97939 39.9345 7.77077 39.2983 7.37991C38.6622 6.98906 38.1664 6.43352 37.8736 5.78355C37.5808 5.13358 37.5042 4.41837 37.6534 3.72836C37.8027 3.03836 38.1711 2.40455 38.7121 1.90708C39.2531 1.40961 39.9424 1.07083 40.6928 0.933584C41.4432 0.796334 42.221 0.866776 42.9279 1.136C43.6348 1.40523 44.2389 1.86115 44.664 2.44611C45.0891 3.03106 45.3159 3.71879 45.3159 4.42231C45.3159 5.36571 44.9084 6.27046 44.1829 6.93754C43.4574 7.60463 42.4735 7.97939 41.4475 7.97939Z" fill="white"/>
<path fill-rule="evenodd" clip-rule="evenodd" d="M32.053 7.33302C32.6791 7.33302 33.2911 7.16231 33.8116 6.84247C34.3322 6.52264 34.7379 6.06805 34.9775 5.53619C35.2171 5.00433 35.2798 4.41908 35.1576 3.85446C35.0355 3.28984 34.734 2.7712 34.2913 2.36413C33.8486 1.95706 33.2846 1.67985 32.6705 1.56754C32.0565 1.45523 31.42 1.51287 30.8416 1.73317C30.2632 1.95348 29.7688 2.32655 29.421 2.80521C29.0732 3.28387 28.8875 3.84663 28.8875 4.42231C28.8875 4.80455 28.9694 5.18305 29.1285 5.53619C29.2876 5.88933 29.5207 6.21021 29.8147 6.48049C30.1086 6.75077 30.4576 6.96518 30.8416 7.11145C31.2257 7.25773 31.6373 7.33302 32.053 7.33302ZM32.053 7.97939C31.2879 7.97939 30.54 7.77077 29.9038 7.37991C29.2677 6.98906 28.7718 6.43352 28.479 5.78355C28.1862 5.13358 28.1096 4.41837 28.2589 3.72836C28.4082 3.03836 28.7766 2.40455 29.3176 1.90708C29.8586 1.40961 30.5479 1.07083 31.2983 0.933584C32.0487 0.796334 32.8265 0.866776 33.5334 1.136C34.2402 1.40523 34.8444 1.86115 35.2695 2.44611C35.6945 3.03106 35.9214 3.71879 35.9214 4.42231C35.9214 5.36571 35.5138 6.27046 34.7884 6.93754C34.0629 7.60463 33.079 7.97939 32.053 7.97939V7.97939Z" fill="white"/>
<path d="M22.6575 7.97939C24.794 7.97939 26.5259 6.38683 26.5259 4.42231C26.5259 2.45779 24.794 0.865234 22.6575 0.865234C20.521 0.865234 18.7891 2.45779 18.7891 4.42231C18.7891 6.38683 20.521 7.97939 22.6575 7.97939Z" fill="white"/>
<path d="M13.263 7.97939C15.3994 7.97939 17.1314 6.38683 17.1314 4.42231C17.1314 2.45779 15.3994 0.865234 13.263 0.865234C11.1265 0.865234 9.39453 2.45779 9.39453 4.42231C9.39453 6.38683 11.1265 7.97939 13.263 7.97939Z" fill="white"/>
<path fill-rule="evenodd" clip-rule="evenodd" d="M3.86842 7.97939C4.63352 7.97939 5.38144 7.77077 6.0176 7.37991C6.65376 6.98906 7.14958 6.43352 7.44238 5.78355C7.73517 5.13358 7.81177 4.41837 7.66251 3.72836C7.51325 3.03836 7.14482 2.40455 6.60381 1.90708C6.0628 1.40961 5.37351 1.07083 4.62311 0.933584C3.87271 0.796334 3.0949 0.866776 2.38804 1.136C1.68118 1.40523 1.07701 1.86115 0.651947 2.44611C0.226879 3.03107 0 3.71879 0 4.42231C0 5.36571 0.407565 6.27046 1.13303 6.93755C1.8585 7.60463 2.84245 7.97939 3.86842 7.97939Z" fill="white"/>
</svg>
