<svg width="22" height="21" viewBox="0 0 22 21" fill="none" xmlns="http://www.w3.org/2000/svg">
<path fill-rule="evenodd" clip-rule="evenodd" d="M1.40354e-05 1.95665C-0.000969832 1.70043 0.0497817 1.44653 0.149366 1.20948C0.24895 0.972428 0.395413 0.756874 0.580378 0.575145C0.765342 0.393417 0.985179 0.249081 1.22731 0.150392C1.46945 0.0517033 1.72913 0.000598255 1.99151 0L20.0085 0C20.2708 0.000718257 20.5305 0.0519051 20.7725 0.150636C21.0146 0.249368 21.2344 0.393708 21.4193 0.575412C21.6043 0.757117 21.7508 0.972624 21.8504 1.20962C21.95 1.44662 22.0008 1.70046 22 1.95665V19.0433C22.001 19.2996 21.9502 19.5535 21.8506 19.7905C21.751 20.0276 21.6046 20.2431 21.4196 20.4249C21.2347 20.6066 21.0148 20.7509 20.7727 20.8496C20.5305 20.9483 20.2709 20.9994 20.0085 21H1.99151C1.72917 20.9993 1.46954 20.9481 1.22746 20.8494C0.985381 20.7506 0.765593 20.6063 0.580653 20.4246C0.395713 20.2429 0.249245 20.0274 0.149617 19.7904C0.049989 19.5534 -0.000846738 19.2995 1.40354e-05 19.0433V1.95665ZM1.00044 5.85352C1.00239 5.5971 1.1075 5.35171 1.29309 5.1703C1.47868 4.9889 1.72987 4.88602 1.99245 4.88387H20.0085C20.2716 4.88435 20.5238 4.9867 20.7097 5.16846C20.8957 5.35023 21.0002 5.59659 21.0005 5.85352V19.0534C20.9985 19.3098 20.8934 19.5552 20.7078 19.7366C20.5222 19.918 20.2711 20.0209 20.0085 20.023H1.99245C1.72934 20.0226 1.47716 19.9202 1.29121 19.7384C1.10525 19.5567 1.00068 19.3103 1.00044 19.0534V5.85352ZM18.2535 8.79078C18.4015 8.79078 18.5461 8.74794 18.6691 8.66768C18.7921 8.58742 18.888 8.47334 18.9446 8.33987C19.0012 8.2064 19.016 8.05954 18.9871 7.91785C18.9583 7.77616 18.887 7.64601 18.7824 7.54385C18.6778 7.4417 18.5446 7.37213 18.3995 7.34395C18.2544 7.31576 18.104 7.33023 17.9673 7.38551C17.8306 7.4408 17.7138 7.53442 17.6316 7.65454C17.5494 7.77466 17.5056 7.91588 17.5056 8.06035C17.5056 8.25407 17.5844 8.43986 17.7246 8.57684C17.8649 8.71383 18.0552 8.79078 18.2535 8.79078ZM11.2524 8.79078C11.4004 8.79078 11.545 8.74794 11.668 8.66768C11.791 8.58742 11.8869 8.47334 11.9435 8.33987C12.0001 8.2064 12.0149 8.05954 11.9861 7.91785C11.9572 7.77616 11.886 7.64601 11.7813 7.54385C11.6767 7.4417 11.5435 7.37213 11.3984 7.34395C11.2533 7.31576 11.1029 7.33023 10.9662 7.38551C10.8295 7.4408 10.7127 7.53442 10.6305 7.65454C10.5483 7.77466 10.5045 7.91588 10.5045 8.06035C10.5045 8.25407 10.5833 8.43986 10.7235 8.57684C10.8638 8.71383 11.0541 8.79078 11.2524 8.79078ZM11.2524 13.1862C11.4004 13.1862 11.545 13.1433 11.668 13.0631C11.791 12.9828 11.8869 12.8687 11.9435 12.7353C12.0001 12.6018 12.0149 12.4549 11.9861 12.3132C11.9572 12.1715 11.886 12.0414 11.7813 11.9392C11.6767 11.8371 11.5435 11.7675 11.3984 11.7393C11.2533 11.7112 11.1029 11.7256 10.9662 11.7809C10.8295 11.8362 10.7127 11.9298 10.6305 12.0499C10.5483 12.1701 10.5045 12.3113 10.5045 12.4557C10.5045 12.5517 10.5238 12.6466 10.5614 12.7353C10.599 12.8239 10.6541 12.9044 10.7235 12.9722C10.793 13.0401 10.8755 13.0939 10.9662 13.1306C11.057 13.1673 11.1542 13.1862 11.2524 13.1862V13.1862ZM7.7519 13.1862C7.89983 13.1862 8.04445 13.1433 8.16745 13.0631C8.29046 12.9828 8.38633 12.8687 8.44294 12.7353C8.49955 12.6018 8.51436 12.4549 8.4855 12.3132C8.45664 12.1715 8.3854 12.0414 8.2808 11.9392C8.17619 11.8371 8.04291 11.7675 7.89782 11.7393C7.75272 11.7112 7.60233 11.7256 7.46566 11.7809C7.32898 11.8362 7.21216 11.9298 7.12997 12.0499C7.04778 12.1701 7.00391 12.3113 7.00391 12.4557C7.00391 12.5517 7.02326 12.6466 7.06085 12.7353C7.09844 12.8239 7.15354 12.9044 7.22299 12.9722C7.29245 13.0401 7.37491 13.0939 7.46566 13.1306C7.5564 13.1673 7.65367 13.1862 7.7519 13.1862V13.1862ZM4.25135 13.1862C4.39928 13.1862 4.5439 13.1433 4.6669 13.0631C4.78991 12.9828 4.88578 12.8687 4.94239 12.7353C4.999 12.6018 5.01382 12.4549 4.98496 12.3132C4.95609 12.1715 4.88486 12.0414 4.78025 11.9392C4.67564 11.8371 4.54236 11.7675 4.39727 11.7393C4.25218 11.7112 4.10178 11.7256 3.96511 11.7809C3.82843 11.8362 3.71161 11.9298 3.62942 12.0499C3.54724 12.1701 3.50337 12.3113 3.50337 12.4557C3.50337 12.5517 3.52271 12.6466 3.5603 12.7353C3.59789 12.8239 3.65299 12.9044 3.72245 12.9722C3.7919 13.0401 3.87436 13.0939 3.96511 13.1306C4.05586 13.1673 4.15312 13.1862 4.25135 13.1862V13.1862ZM18.2545 13.1862C18.4024 13.1862 18.547 13.1433 18.67 13.0631C18.793 12.9828 18.8889 12.8687 18.9455 12.7353C19.0021 12.6018 19.0169 12.4549 18.9881 12.3132C18.9592 12.1715 18.888 12.0414 18.7834 11.9392C18.6788 11.8371 18.5455 11.7675 18.4004 11.7393C18.2553 11.7112 18.1049 11.7256 17.9682 11.7809C17.8316 11.8362 17.7147 11.9298 17.6326 12.0499C17.5504 12.1701 17.5065 12.3113 17.5065 12.4557C17.5065 12.6493 17.5852 12.835 17.7252 12.9719C17.8653 13.1089 18.0553 13.1859 18.2535 13.1862H18.2545ZM14.7539 17.5816C14.9019 17.5816 15.0465 17.5387 15.1695 17.4585C15.2925 17.3782 15.3884 17.2641 15.445 17.1307C15.5016 16.9972 15.5164 16.8503 15.4875 16.7086C15.4587 16.5669 15.3874 16.4368 15.2828 16.3346C15.1782 16.2325 15.0449 16.1629 14.8998 16.1347C14.7548 16.1065 14.6044 16.121 14.4677 16.1763C14.331 16.2316 14.2142 16.3252 14.132 16.4453C14.0498 16.5654 14.0059 16.7067 14.0059 16.8511C14.0059 17.0447 14.0846 17.2303 14.2247 17.3673C14.3648 17.5043 14.5548 17.5813 14.753 17.5816H14.7539ZM7.75283 17.5816C7.90077 17.5816 8.04538 17.5387 8.16839 17.4585C8.29139 17.3782 8.38726 17.2641 8.44387 17.1307C8.50049 16.9972 8.5153 16.8503 8.48644 16.7086C8.45758 16.5669 8.38634 16.4368 8.28173 16.3346C8.17712 16.2325 8.04385 16.1629 7.89875 16.1347C7.75366 16.1065 7.60327 16.121 7.46659 16.1763C7.32991 16.2316 7.2131 16.3252 7.13091 16.4453C7.04872 16.5654 7.00485 16.7067 7.00485 16.8511C7.00485 17.0447 7.08353 17.2303 7.2236 17.3673C7.36367 17.5043 7.55368 17.5813 7.7519 17.5816H7.75283ZM11.2534 17.5816C11.4013 17.5816 11.5459 17.5387 11.6689 17.4585C11.7919 17.3782 11.8878 17.2641 11.9444 17.1307C12.001 16.9972 12.0158 16.8503 11.987 16.7086C11.9581 16.5669 11.8869 16.4368 11.7823 16.3346C11.6777 16.2325 11.5444 16.1629 11.3993 16.1347C11.2542 16.1065 11.1038 16.121 10.9671 16.1763C10.8305 16.2316 10.7136 16.3252 10.6315 16.4453C10.5493 16.5654 10.5054 16.7067 10.5054 16.8511C10.5054 17.0447 10.5841 17.2303 10.7241 17.3673C10.8642 17.5043 11.0542 17.5813 11.2524 17.5816H11.2534ZM4.25228 17.5816C4.40022 17.5816 4.54483 17.5387 4.66784 17.4585C4.79084 17.3782 4.88671 17.2641 4.94333 17.1307C4.99994 16.9972 5.01475 16.8503 4.98589 16.7086C4.95703 16.5669 4.88579 16.4368 4.78118 16.3346C4.67658 16.2325 4.5433 16.1629 4.39821 16.1347C4.25311 16.1065 4.10272 16.121 3.96604 16.1763C3.82937 16.2316 3.71255 16.3252 3.63036 16.4453C3.54817 16.5654 3.5043 16.7067 3.5043 16.8511C3.5043 17.0447 3.58298 17.2303 3.72305 17.3673C3.86312 17.5043 4.05313 17.5813 4.25135 17.5816H4.25228ZM14.7549 14.1631C15.101 14.1631 15.4394 14.0629 15.7273 13.8751C16.0151 13.6873 16.2394 13.4203 16.3719 13.108C16.5044 12.7957 16.539 12.452 16.4715 12.1205C16.404 11.7889 16.2373 11.4844 15.9925 11.2453C15.7477 11.0063 15.4358 10.8435 15.0963 10.7775C14.7568 10.7116 14.4049 10.7454 14.0851 10.8748C13.7652 11.0042 13.4919 11.2232 13.2996 11.5043C13.1072 11.7854 13.0046 12.1159 13.0046 12.4539C13.0046 12.9069 13.1887 13.3414 13.5166 13.6619C13.8444 13.9824 14.2891 14.1626 14.753 14.1631H14.7549ZM14.7549 8.79078C14.9028 8.79078 15.0474 8.74794 15.1704 8.66768C15.2934 8.58742 15.3893 8.47334 15.4459 8.33987C15.5025 8.2064 15.5173 8.05954 15.4885 7.91785C15.4596 7.77616 15.3884 7.64601 15.2838 7.54385C15.1792 7.4417 15.0459 7.37213 14.9008 7.34395C14.7557 7.31576 14.6053 7.33023 14.4686 7.38551C14.3319 7.4408 14.2151 7.53442 14.1329 7.65454C14.0507 7.77466 14.0069 7.91588 14.0069 8.06035C14.0069 8.25376 14.0854 8.43927 14.2253 8.5762C14.3652 8.71313 14.5549 8.7903 14.753 8.79078H14.7549ZM7.75377 8.79078C7.9017 8.79078 8.04632 8.74794 8.16932 8.66768C8.29233 8.58742 8.3882 8.47334 8.44481 8.33987C8.50142 8.2064 8.51623 8.05954 8.48737 7.91785C8.45851 7.77616 8.38727 7.64601 8.28267 7.54385C8.17806 7.4417 8.04478 7.37213 7.89969 7.34395C7.75459 7.31576 7.6042 7.33023 7.46752 7.38551C7.33085 7.4408 7.21403 7.53442 7.13184 7.65454C7.04965 7.77466 7.00578 7.91588 7.00578 8.06035C7.00578 8.25376 7.08433 8.43927 7.2242 8.5762C7.36407 8.71313 7.55384 8.7903 7.7519 8.79078H7.75377Z" fill="#007A33"/>
</svg>
