<svg width="17" height="12" viewBox="0 0 17 12" fill="none" xmlns="http://www.w3.org/2000/svg">
<path fill-rule="evenodd" clip-rule="evenodd" d="M8.67848 2.42492C11.2384 2.41891 13.7175 3.24912 15.6737 4.76751L16.9735 3.4768C14.7032 1.58524 11.7496 0.536849 8.68592 0.535158C5.62228 0.533468 2.66726 1.5786 0.394531 3.46766L1.69211 4.7604C3.6467 3.24557 6.12224 2.4173 8.67848 2.42289V2.42492ZM8.67848 6.15071C10.2118 6.14827 11.6977 6.63943 12.8785 7.53898L14.2545 6.17307C12.7051 4.94217 10.726 4.26445 8.6784 4.26352C6.63077 4.26258 4.651 4.9385 3.10021 6.16798L4.47406 7.53593C5.65526 6.63762 7.1412 6.14789 8.67406 6.15172L8.67848 6.15071ZM11.508 8.9049C10.7216 8.28197 9.71809 7.93934 8.68013 7.93934C7.64218 7.93934 6.63872 8.28197 5.85233 8.9049L8.67738 11.715L11.5068 8.9049H11.508Z" fill="white"/>
</svg>
